<mxfile host="app.diagrams.net" modified="2023-08-17T08:32:46.321Z" agent="Mozilla/5.0 (Windows NT 10.0; Win64; x64) AppleWebKit/537.36 (KHTML, like Gecko) Chrome/115.0.0.0 Safari/537.36" etag="y0J_qVR0oL2fBCnodbSb" version="21.6.8" type="github">
  <diagram name="第 1 页" id="9dsKU1vxPu6Vu-CxJnR_">
    <mxGraphModel dx="1050" dy="534" grid="1" gridSize="10" guides="1" tooltips="1" connect="1" arrows="1" fold="1" page="1" pageScale="1" pageWidth="827" pageHeight="1169" math="0" shadow="0">
      <root>
        <mxCell id="0" />
        <mxCell id="1" parent="0" />
        <mxCell id="2jWJXjC7bSSDOM65K_Ti-5" value="Container" style="swimlane;" vertex="1" parent="1">
          <mxGeometry x="310" y="180" width="200" height="200" as="geometry" />
        </mxCell>
      </root>
    </mxGraphModel>
  </diagram>
</mxfile>
